<svg width="292" height="140" viewBox="0 0 292 140" fill="none" xmlns="http://www.w3.org/2000/svg">
  <path d="M45.4141 27.0176C51.8594 27.0176 57.6862 28.0592 62.8945 30.1426C68.1354 32.1934 72.6113 35.0579 76.3223 38.7363C80.0332 42.4147 82.8978 46.793 84.916 51.8711C86.9342 56.9492 87.9434 62.4993 87.9434 68.5215C87.9434 72.3952 87.569 76.1387 86.8203 79.752C86.0716 83.3652 84.9974 86.7669 83.5977 89.957C82.1979 93.1471 80.4727 96.0605 78.4219 98.6973C76.4036 101.334 74.1087 103.613 71.5371 105.533C68.998 107.421 66.1986 108.886 63.1387 109.928C60.1113 110.969 56.8724 111.49 53.4219 111.49C49.9062 111.49 46.3581 111.165 42.7773 110.514C39.1966 109.863 35.6484 109.163 32.1328 108.414C30.9284 109.098 29.6914 109.684 28.4219 110.172C27.1523 110.693 25.8828 111.116 24.6133 111.441C23.3438 111.799 22.0905 112.06 20.8535 112.223C19.6491 112.418 18.5098 112.516 17.4355 112.516C14.1803 112.516 11.7064 112.141 10.0137 111.393C8.28841 110.644 7.42578 109.521 7.42578 108.023C7.42578 107.145 7.66992 106.363 8.1582 105.68C8.61393 104.996 9.39518 104.426 10.502 103.971C11.6087 103.482 13.0573 103.124 14.8477 102.896C16.6055 102.636 18.8027 102.506 21.4395 102.506C23.4902 102.506 25.5085 102.62 27.4941 102.848C29.4798 103.043 31.4492 103.287 33.4023 103.58L34.7207 102.213C35.4043 101.399 35.9251 100.374 36.2832 99.1367C36.6413 97.8672 36.9017 96.2396 37.0645 94.2539C37.2272 92.2682 37.3249 89.8431 37.3574 86.9785C37.39 84.0814 37.4062 80.582 37.4062 76.4805C37.4062 72.5091 37.4225 69.1237 37.4551 66.3242C37.5202 63.4922 37.6504 61.0671 37.8457 59.0488C38.041 57.0306 38.334 55.3216 38.7246 53.9219C39.1152 52.4896 39.6361 51.1875 40.2871 50.0156C40.9707 48.8112 41.8171 47.6393 42.8262 46.5C43.8353 45.3281 45.0397 43.9935 46.4395 42.4961L48.9297 44.6934C48.2135 45.377 47.6439 46.2233 47.2207 47.2324C46.8301 48.209 46.5371 49.3809 46.3418 50.748C46.1465 52.0827 46.0163 53.6126 45.9512 55.3379C45.9186 57.0306 45.9023 58.9512 45.9023 61.0996V88.5898C45.9023 90.7057 45.6745 92.5612 45.2188 94.1562C44.763 95.7188 44.1445 97.1185 43.3633 98.3555C42.6146 99.5924 41.752 100.699 40.7754 101.676C39.7988 102.652 38.7897 103.564 37.748 104.41C39.6686 104.801 41.5404 105.191 43.3633 105.582C45.1862 105.973 46.944 106.331 48.6367 106.656C50.362 106.982 52.0059 107.258 53.5684 107.486C55.1634 107.682 56.6771 107.779 58.1094 107.779C60.7786 107.779 63.1549 107.193 65.2383 106.021C67.3216 104.85 69.1283 103.255 70.6582 101.236C72.1882 99.1855 73.474 96.793 74.5156 94.0586C75.5898 91.2917 76.4525 88.3294 77.1035 85.1719C77.7546 82.0143 78.2103 78.7103 78.4707 75.2598C78.7637 71.8092 78.9102 68.3913 78.9102 65.0059C78.9102 59.6348 78.2266 54.8171 76.8594 50.5527C75.4922 46.2884 73.4577 42.6751 70.7559 39.7129C68.0866 36.7181 64.75 34.4395 60.7461 32.877C56.7747 31.2819 52.1686 30.4844 46.9277 30.4844C43.1517 30.4844 39.8639 30.7936 37.0645 31.4121C34.265 31.998 31.8561 32.7956 29.8379 33.8047C27.8522 34.7812 26.2246 35.9043 24.9551 37.1738C23.6855 38.4434 22.6764 39.7617 21.9277 41.1289C21.2116 42.4635 20.707 43.7982 20.4141 45.1328C20.1536 46.4674 20.0234 47.6882 20.0234 48.7949C20.0234 50.097 20.1211 51.3828 20.3164 52.6523C20.5443 53.8893 20.9674 54.9961 21.5859 55.9727C22.237 56.9492 23.1484 57.7305 24.3203 58.3164C25.4922 58.9023 27.0547 59.1953 29.0078 59.1953C29.6589 59.1953 30.196 59.1628 30.6191 59.0977C31.0423 59 31.4004 58.8861 31.6934 58.7559C32.0189 58.6257 32.2956 58.4792 32.5234 58.3164L33.1094 61.1973C32.6211 61.5553 31.791 61.8646 30.6191 62.125C29.4798 62.3854 28.2428 62.5156 26.9082 62.5156C24.9551 62.5156 23.1322 62.1738 21.4395 61.4902C19.7793 60.8066 18.3307 59.8789 17.0938 58.707C15.8568 57.5026 14.8965 56.1191 14.2129 54.5566C13.4967 52.9941 13.1387 51.334 13.1387 49.5762C13.1387 46.5488 13.9362 43.6842 15.5312 40.9824C17.1263 38.248 19.3561 35.8555 22.2207 33.8047C25.0853 31.7214 28.487 30.0775 32.4258 28.873C36.3971 27.6361 40.7266 27.0176 45.4141 27.0176ZM15.4336 106.021C14.9128 106.021 14.3594 106.038 13.7734 106.07C13.1875 106.103 12.6504 106.184 12.1621 106.314C11.6413 106.445 11.2181 106.64 10.8926 106.9C10.5671 107.161 10.4043 107.535 10.4043 108.023C10.4043 108.674 10.9414 109.163 12.0156 109.488C13.0898 109.814 14.8965 109.977 17.4355 109.977C19.3887 109.977 21.2441 109.765 23.002 109.342C24.7923 108.919 26.4688 108.3 28.0312 107.486C25.8828 107.096 23.7507 106.754 21.6348 106.461C19.5189 106.168 17.4518 106.021 15.4336 106.021Z" fill="#F2C94C"/>
  <path d="M108.451 103.482C109.59 103.482 110.746 103.189 111.918 102.604C113.122 102.018 114.327 101.106 115.531 99.8691C116.768 98.6322 118.038 97.0371 119.34 95.084C120.642 93.0983 121.977 90.7383 123.344 88.0039L123.832 86.9785L125.834 88.4922L125.346 89.5176C123.588 93.0007 121.83 95.9792 120.072 98.4531C118.347 100.927 116.638 102.945 114.945 104.508C113.285 106.07 111.641 107.21 110.014 107.926C108.386 108.642 106.824 109 105.326 109C103.21 109 101.322 108.561 99.6621 107.682C98.002 106.803 96.6022 105.615 95.4629 104.117C94.3236 102.587 93.4609 100.829 92.875 98.8438C92.2565 96.8255 91.9473 94.7096 91.9473 92.4961C91.9473 88.9805 92.4355 85.7904 93.4121 82.9258C94.3561 80.0286 95.6257 77.5547 97.2207 75.5039C98.8483 73.4531 100.688 71.8581 102.738 70.7188C104.789 69.5794 106.921 69.0098 109.135 69.0098C111.381 69.0098 113.09 69.5794 114.262 70.7188C115.466 71.8581 116.068 73.2904 116.068 75.0156C116.068 76.6758 115.596 78.2383 114.652 79.7031C113.708 81.1354 112.423 82.5514 110.795 83.9512C109.2 85.3184 107.344 86.6855 105.229 88.0527C103.113 89.3874 100.883 90.7708 98.5391 92.2031C98.7669 93.8958 99.1576 95.4421 99.7109 96.8418C100.264 98.209 100.964 99.3971 101.811 100.406C102.657 101.383 103.633 102.148 104.74 102.701C105.847 103.222 107.084 103.482 108.451 103.482ZM109.965 76.4805C109.965 75.1784 109.607 74.153 108.891 73.4043C108.207 72.6556 107.361 72.2812 106.352 72.2812C105.505 72.2812 104.61 72.5905 103.666 73.209C102.722 73.7949 101.859 74.7552 101.078 76.0898C100.297 77.3919 99.6458 79.0684 99.125 81.1191C98.6042 83.1699 98.3438 85.6602 98.3438 88.5898V89.7129C99.4505 89.127 100.671 88.362 102.006 87.418C103.373 86.4414 104.643 85.3672 105.814 84.1953C106.986 83.0234 107.963 81.7865 108.744 80.4844C109.558 79.1497 109.965 77.8151 109.965 76.4805Z" fill="#EB5757"/>
  <path d="M181.107 42.0078C181.107 44.9049 180.538 47.6393 179.398 50.2109C178.259 52.75 176.811 55.0938 175.053 57.2422C173.327 59.3906 171.423 61.3438 169.34 63.1016C167.289 64.8268 165.336 66.3242 163.48 67.5938C166.085 67.8216 168.673 68.4564 171.244 69.498C173.848 70.5072 176.176 71.9232 178.227 73.7461C180.31 75.5365 181.986 77.7174 183.256 80.2891C184.558 82.8281 185.209 85.7253 185.209 88.9805C185.209 91.6497 184.818 94.0586 184.037 96.207C183.288 98.3229 182.279 100.227 181.01 101.92C179.74 103.58 178.292 105.012 176.664 106.217C175.069 107.421 173.441 108.414 171.781 109.195C170.121 109.977 168.477 110.546 166.85 110.904C165.255 111.295 163.839 111.49 162.602 111.49C159.477 111.49 156.872 111.116 154.789 110.367C152.738 109.618 151.094 108.707 149.857 107.633C148.653 106.526 147.807 105.37 147.318 104.166C146.83 102.962 146.586 101.904 146.586 100.992C146.586 99.5924 146.879 98.2578 147.465 96.9883C148.083 95.6862 148.897 94.5143 149.906 93.4727C150.915 92.431 152.087 91.5195 153.422 90.7383C154.757 89.9245 156.14 89.306 157.572 88.8828L158.598 90.4941C156.547 91.6009 155.033 93.0332 154.057 94.791C153.08 96.5163 152.592 98.2578 152.592 100.016C152.592 100.992 152.787 102.018 153.178 103.092C153.601 104.133 154.219 105.094 155.033 105.973C155.88 106.852 156.921 107.584 158.158 108.17C159.428 108.723 160.909 109 162.602 109C165.076 109 167.387 108.544 169.535 107.633C171.684 106.689 173.539 105.403 175.102 103.775C176.697 102.115 177.934 100.178 178.812 97.9648C179.724 95.7513 180.18 93.3587 180.18 90.7871C180.18 88.1504 179.626 85.8229 178.52 83.8047C177.445 81.7865 175.997 80.0938 174.174 78.7266C172.383 77.3268 170.3 76.2689 167.924 75.5527C165.58 74.8366 163.139 74.4785 160.6 74.4785C159.558 74.4785 158.533 74.5436 157.523 74.6738C156.514 74.7715 155.554 74.918 154.643 75.1133C153.764 75.276 152.966 75.4388 152.25 75.6016C151.534 75.7643 150.98 75.8945 150.59 75.9922L150.102 75.5039L154.594 68.5215C154.952 68.4238 155.359 68.3099 155.814 68.1797C156.205 68.082 156.677 67.9844 157.23 67.8867C157.784 67.7565 158.402 67.6589 159.086 67.5938C160.648 66.6497 162.276 65.4616 163.969 64.0293C165.694 62.5645 167.257 60.888 168.656 59C170.089 57.0794 171.26 54.931 172.172 52.5547C173.116 50.1784 173.588 47.5905 173.588 44.791C173.588 40.071 172.465 36.5065 170.219 34.0977C167.973 31.6888 164.766 30.4844 160.6 30.4844C158.191 30.4844 155.766 31.0052 153.324 32.0469C150.883 33.056 148.523 34.6185 146.244 36.7344C143.998 38.8503 141.882 41.5195 139.896 44.7422C137.943 47.9648 136.234 51.7572 134.77 56.1191C133.337 60.4811 132.198 65.4453 131.352 71.0117C130.505 76.5781 130.082 82.7467 130.082 89.5176C130.082 92.3171 130.196 94.9049 130.424 97.2812C130.684 99.6576 131.059 101.725 131.547 103.482C132.068 105.208 132.702 106.559 133.451 107.535C134.2 108.512 135.079 109 136.088 109C137.097 109 137.895 108.268 138.48 106.803C139.099 105.305 139.555 103.368 139.848 100.992C140.173 98.5833 140.368 95.8978 140.434 92.9355C140.531 89.9733 140.58 86.9948 140.58 84C140.58 79.4427 140.515 75.1621 140.385 71.1582C140.255 67.1217 140.108 63.5247 139.945 60.3672C139.815 57.2096 139.685 54.5729 139.555 52.457C139.424 50.3411 139.343 48.9251 139.311 48.209L144.975 46.5C145.137 46.7604 145.365 47.5417 145.658 48.8438C145.951 50.1458 146.244 51.8711 146.537 54.0195C146.83 56.1354 147.074 58.6094 147.27 61.4414C147.497 64.2409 147.611 67.2682 147.611 70.5234C147.611 76.0247 147.449 80.8587 147.123 85.0254C146.83 89.1595 146.407 92.7565 145.854 95.8164C145.3 98.8438 144.649 101.367 143.9 103.385C143.184 105.403 142.387 107.014 141.508 108.219C140.661 109.391 139.766 110.221 138.822 110.709C137.911 111.23 136.999 111.49 136.088 111.49C134.102 111.49 132.312 110.807 130.717 109.439C129.154 108.105 127.82 106.331 126.713 104.117C125.606 101.871 124.76 99.3158 124.174 96.4512C123.588 93.554 123.295 90.5755 123.295 87.5156C123.295 83.1211 123.702 78.5801 124.516 73.8926C125.329 69.2051 126.534 64.6315 128.129 60.1719C129.724 55.6797 131.693 51.4316 134.037 47.4277C136.381 43.3913 139.083 39.8757 142.143 36.8809C145.202 33.8535 148.604 31.4609 152.348 29.7031C156.124 27.9128 160.209 27.0176 164.604 27.0176C167.11 27.0176 169.372 27.3594 171.391 28.043C173.441 28.694 175.183 29.6706 176.615 30.9727C178.048 32.2422 179.154 33.8047 179.936 35.6602C180.717 37.5156 181.107 39.6315 181.107 42.0078Z" fill="#2F80ED"/>
  <path d="M221.879 96.8906C221.879 98.7461 222.042 100.309 222.367 101.578C222.693 102.848 223.262 103.482 224.076 103.482C224.564 103.482 225.085 103.255 225.639 102.799C226.225 102.311 226.892 101.529 227.641 100.455C228.389 99.3809 229.236 97.9974 230.18 96.3047C231.156 94.5794 232.263 92.4798 233.5 90.0059L234.965 86.9785L236.967 88.4922L235.502 91.5195C234.135 94.2539 232.849 96.7116 231.645 98.8926C230.473 101.041 229.35 102.864 228.275 104.361C227.201 105.859 226.143 107.014 225.102 107.828C224.092 108.609 223.083 109 222.074 109C221 109 220.089 108.707 219.34 108.121C218.624 107.535 218.021 106.738 217.533 105.729C217.045 104.687 216.671 103.499 216.41 102.164C216.15 100.797 215.971 99.3483 215.873 97.8184C215.092 99.3809 214.229 100.846 213.285 102.213C212.341 103.548 211.348 104.719 210.307 105.729C209.298 106.738 208.24 107.535 207.133 108.121C206.026 108.707 204.919 109 203.812 109C202.185 109 200.606 108.658 199.076 107.975C197.546 107.291 196.179 106.249 194.975 104.85C193.803 103.45 192.859 101.692 192.143 99.5762C191.426 97.4277 191.068 94.9049 191.068 92.0078C191.068 88.6224 191.508 85.5299 192.387 82.7305C193.266 79.8984 194.454 77.4733 195.951 75.4551C197.449 73.4043 199.174 71.8255 201.127 70.7188C203.08 69.5794 205.131 69.0098 207.279 69.0098C208.581 69.0098 209.786 69.3027 210.893 69.8887C211.999 70.4746 212.96 71.1908 213.773 72.0371C214.62 72.8509 215.32 73.7298 215.873 74.6738C216.426 75.5853 216.801 76.3665 216.996 77.0176L217.582 72.2812C217.647 71.6628 217.94 71.1419 218.461 70.7188C219.014 70.2956 219.617 69.9701 220.268 69.7422C220.919 69.4818 221.553 69.3027 222.172 69.2051C222.79 69.0749 223.23 69.0098 223.49 69.0098C223.881 69.0098 224.141 69.0749 224.271 69.2051C224.402 69.3353 224.467 69.5957 224.467 69.9863C224.467 70.4746 224.32 71.4674 224.027 72.9648C223.767 74.4297 223.474 76.3177 223.148 78.6289C222.855 80.9076 222.562 83.5931 222.27 86.6855C222.009 89.778 221.879 93.1797 221.879 96.8906ZM216.508 84C216.508 82.5026 216.28 81.0378 215.824 79.6055C215.368 78.1406 214.75 76.8548 213.969 75.748C213.188 74.6087 212.276 73.6973 211.234 73.0137C210.225 72.3301 209.151 71.9883 208.012 71.9883C206.612 71.9883 205.294 72.3952 204.057 73.209C202.852 73.9902 201.794 75.1133 200.883 76.5781C200.004 78.0104 199.304 79.752 198.783 81.8027C198.262 83.821 198.002 86.0508 198.002 88.4922C198.002 93.375 198.767 97.1022 200.297 99.6738C201.827 102.213 203.861 103.482 206.4 103.482C207.507 103.482 208.646 103.043 209.818 102.164C211.023 101.253 212.113 99.9668 213.09 98.3066C214.099 96.6139 214.913 94.5632 215.531 92.1543C216.182 89.7454 216.508 87.0273 216.508 84Z" fill="#F2994A"/>
  <path d="M238.041 70.377C238.171 70.0514 238.48 69.791 238.969 69.5957C239.457 69.4004 239.978 69.2702 240.531 69.2051C241.085 69.1074 241.605 69.0586 242.094 69.0586C242.582 69.026 242.908 69.0098 243.07 69.0098C243.559 69.0098 243.868 69.14 243.998 69.4004C244.161 69.6283 244.242 70.0026 244.242 70.5234C244.242 70.7839 244.161 71.3698 243.998 72.2812C243.835 73.1602 243.624 74.2669 243.363 75.6016C243.135 76.9362 242.875 78.4499 242.582 80.1426C242.322 81.8353 242.061 83.5768 241.801 85.3672C241.573 87.1576 241.378 88.9805 241.215 90.8359C241.052 92.6589 240.971 94.3841 240.971 96.0117C240.971 98.8438 241.443 100.976 242.387 102.408C243.331 103.808 244.421 104.508 245.658 104.508C247.807 104.508 249.711 102.929 251.371 99.7715C253.031 96.6139 254.757 91.9915 256.547 85.9043V71.6953C256.547 71.1419 256.791 70.7025 257.279 70.377C257.8 70.0189 258.386 69.7422 259.037 69.5469C259.688 69.3516 260.323 69.2214 260.941 69.1562C261.56 69.0586 261.999 69.0098 262.26 69.0098C263.269 69.0098 263.773 69.5143 263.773 70.5234C263.773 70.8815 263.741 71.4837 263.676 72.3301C263.643 73.1439 263.594 74.1204 263.529 75.2598C263.464 76.3665 263.399 77.6035 263.334 78.9707C263.301 80.3053 263.285 81.6562 263.285 83.0234V102.896C263.871 102.148 264.604 101.155 265.482 99.918C266.394 98.681 267.322 97.3626 268.266 95.9629C269.242 94.5632 270.17 93.1634 271.049 91.7637C271.96 90.3639 272.693 89.1107 273.246 88.0039L273.783 86.9785L275.785 88.4922L275.248 89.5176C274.564 90.8848 273.751 92.3008 272.807 93.7656C271.863 95.2305 270.854 96.7116 269.779 98.209C268.738 99.6738 267.647 101.139 266.508 102.604C265.401 104.036 264.327 105.403 263.285 106.705V117.496C263.285 120.491 263.008 123.03 262.455 125.113C261.934 127.229 261.202 128.938 260.258 130.24C259.314 131.575 258.207 132.535 256.938 133.121C255.668 133.707 254.285 134 252.787 134C251.843 134 250.964 133.854 250.15 133.561C249.369 133.268 248.686 132.828 248.1 132.242C247.514 131.689 247.058 131.005 246.732 130.191C246.407 129.41 246.244 128.515 246.244 127.506C246.244 126.041 246.505 124.576 247.025 123.111C247.579 121.646 248.327 120.133 249.271 118.57C250.248 117.008 251.371 115.396 252.641 113.736C253.91 112.109 255.277 110.4 256.742 108.609V93.8145C255.928 96.028 255.049 98.0788 254.105 99.9668C253.161 101.822 252.136 103.417 251.029 104.752C249.923 106.087 248.734 107.128 247.465 107.877C246.195 108.626 244.828 109 243.363 109C242.322 109 241.247 108.837 240.141 108.512C239.066 108.154 238.057 107.519 237.113 106.607C236.202 105.696 235.453 104.475 234.867 102.945C234.281 101.383 233.988 99.3971 233.988 96.9883C233.988 94.2539 234.151 91.4707 234.477 88.6387C234.802 85.8066 235.176 83.1699 235.6 80.7285C236.055 78.2871 236.511 76.1549 236.967 74.332C237.423 72.4766 237.781 71.1582 238.041 70.377ZM252.25 131.021C252.771 131.021 253.292 130.908 253.812 130.68C254.366 130.484 254.854 130.012 255.277 129.264C255.701 128.515 256.042 127.408 256.303 125.943C256.596 124.479 256.742 122.493 256.742 119.986V112.613C255.635 113.98 254.61 115.299 253.666 116.568C252.755 117.87 251.957 119.124 251.273 120.328C250.59 121.565 250.053 122.753 249.662 123.893C249.271 125.032 249.076 126.139 249.076 127.213C249.076 128.222 249.353 129.101 249.906 129.85C250.46 130.631 251.241 131.021 252.25 131.021Z" fill="#27AE60"/>
</svg>
