<svg width="362" height="362" viewBox="0 0 362 362" fill="none" xmlns="http://www.w3.org/2000/svg">
  <path d="M80.4141 138.018C86.8594 138.018 92.6862 139.059 97.8945 141.143C103.135 143.193 107.611 146.058 111.322 149.736C115.033 153.415 117.898 157.793 119.916 162.871C121.934 167.949 122.943 173.499 122.943 179.521C122.943 183.395 122.569 187.139 121.82 190.752C121.072 194.365 119.997 197.767 118.598 200.957C117.198 204.147 115.473 207.061 113.422 209.697C111.404 212.334 109.109 214.613 106.537 216.533C103.998 218.421 101.199 219.886 98.1387 220.928C95.1113 221.969 91.8724 222.49 88.4219 222.49C84.9062 222.49 81.3581 222.165 77.7773 221.514C74.1966 220.863 70.6484 220.163 67.1328 219.414C65.9284 220.098 64.6914 220.684 63.4219 221.172C62.1523 221.693 60.8828 222.116 59.6133 222.441C58.3438 222.799 57.0905 223.06 55.8535 223.223C54.6491 223.418 53.5098 223.516 52.4355 223.516C49.1803 223.516 46.7064 223.141 45.0137 222.393C43.2884 221.644 42.4258 220.521 42.4258 219.023C42.4258 218.145 42.6699 217.363 43.1582 216.68C43.6139 215.996 44.3952 215.426 45.502 214.971C46.6087 214.482 48.0573 214.124 49.8477 213.896C51.6055 213.636 53.8027 213.506 56.4395 213.506C58.4902 213.506 60.5085 213.62 62.4941 213.848C64.4798 214.043 66.4492 214.287 68.4023 214.58L69.7207 213.213C70.4043 212.399 70.9251 211.374 71.2832 210.137C71.6413 208.867 71.9017 207.24 72.0645 205.254C72.2272 203.268 72.3249 200.843 72.3574 197.979C72.39 195.081 72.4062 191.582 72.4062 187.48C72.4062 183.509 72.4225 180.124 72.4551 177.324C72.5202 174.492 72.6504 172.067 72.8457 170.049C73.041 168.031 73.334 166.322 73.7246 164.922C74.1152 163.49 74.6361 162.188 75.2871 161.016C75.9707 159.811 76.8171 158.639 77.8262 157.5C78.8353 156.328 80.0397 154.993 81.4395 153.496L83.9297 155.693C83.2135 156.377 82.6439 157.223 82.2207 158.232C81.8301 159.209 81.5371 160.381 81.3418 161.748C81.1465 163.083 81.0163 164.613 80.9512 166.338C80.9186 168.031 80.9023 169.951 80.9023 172.1V199.59C80.9023 201.706 80.6745 203.561 80.2188 205.156C79.763 206.719 79.1445 208.118 78.3633 209.355C77.6146 210.592 76.752 211.699 75.7754 212.676C74.7988 213.652 73.7897 214.564 72.748 215.41C74.6686 215.801 76.5404 216.191 78.3633 216.582C80.1862 216.973 81.944 217.331 83.6367 217.656C85.362 217.982 87.0059 218.258 88.5684 218.486C90.1634 218.682 91.6771 218.779 93.1094 218.779C95.7786 218.779 98.1549 218.193 100.238 217.021C102.322 215.85 104.128 214.255 105.658 212.236C107.188 210.186 108.474 207.793 109.516 205.059C110.59 202.292 111.452 199.329 112.104 196.172C112.755 193.014 113.21 189.71 113.471 186.26C113.764 182.809 113.91 179.391 113.91 176.006C113.91 170.635 113.227 165.817 111.859 161.553C110.492 157.288 108.458 153.675 105.756 150.713C103.087 147.718 99.75 145.439 95.7461 143.877C91.7747 142.282 87.1686 141.484 81.9277 141.484C78.1517 141.484 74.8639 141.794 72.0645 142.412C69.265 142.998 66.8561 143.796 64.8379 144.805C62.8522 145.781 61.2246 146.904 59.9551 148.174C58.6855 149.443 57.6764 150.762 56.9277 152.129C56.2116 153.464 55.707 154.798 55.4141 156.133C55.1536 157.467 55.0234 158.688 55.0234 159.795C55.0234 161.097 55.1211 162.383 55.3164 163.652C55.5443 164.889 55.9674 165.996 56.5859 166.973C57.237 167.949 58.1484 168.73 59.3203 169.316C60.4922 169.902 62.0547 170.195 64.0078 170.195C64.6589 170.195 65.196 170.163 65.6191 170.098C66.0423 170 66.4004 169.886 66.6934 169.756C67.0189 169.626 67.2956 169.479 67.5234 169.316L68.1094 172.197C67.6211 172.555 66.791 172.865 65.6191 173.125C64.4798 173.385 63.2428 173.516 61.9082 173.516C59.9551 173.516 58.1322 173.174 56.4395 172.49C54.7793 171.807 53.3307 170.879 52.0938 169.707C50.8568 168.503 49.8965 167.119 49.2129 165.557C48.4967 163.994 48.1387 162.334 48.1387 160.576C48.1387 157.549 48.9362 154.684 50.5312 151.982C52.1263 149.248 54.3561 146.855 57.2207 144.805C60.0853 142.721 63.487 141.077 67.4258 139.873C71.3971 138.636 75.7266 138.018 80.4141 138.018ZM50.4336 217.021C49.9128 217.021 49.3594 217.038 48.7734 217.07C48.1875 217.103 47.6504 217.184 47.1621 217.314C46.6413 217.445 46.2181 217.64 45.8926 217.9C45.5671 218.161 45.4043 218.535 45.4043 219.023C45.4043 219.674 45.9414 220.163 47.0156 220.488C48.0898 220.814 49.8965 220.977 52.4355 220.977C54.3887 220.977 56.2441 220.765 58.002 220.342C59.7923 219.919 61.4688 219.3 63.0312 218.486C60.8828 218.096 58.7507 217.754 56.6348 217.461C54.5189 217.168 52.4518 217.021 50.4336 217.021Z" fill="#F2C94C"/>
  <path d="M143.451 214.482C144.59 214.482 145.746 214.189 146.918 213.604C148.122 213.018 149.327 212.106 150.531 210.869C151.768 209.632 153.038 208.037 154.34 206.084C155.642 204.098 156.977 201.738 158.344 199.004L158.832 197.979L160.834 199.492L160.346 200.518C158.588 204.001 156.83 206.979 155.072 209.453C153.347 211.927 151.638 213.945 149.945 215.508C148.285 217.07 146.641 218.21 145.014 218.926C143.386 219.642 141.824 220 140.326 220C138.21 220 136.322 219.561 134.662 218.682C133.002 217.803 131.602 216.615 130.463 215.117C129.324 213.587 128.461 211.829 127.875 209.844C127.257 207.826 126.947 205.71 126.947 203.496C126.947 199.98 127.436 196.79 128.412 193.926C129.356 191.029 130.626 188.555 132.221 186.504C133.848 184.453 135.688 182.858 137.738 181.719C139.789 180.579 141.921 180.01 144.135 180.01C146.381 180.01 148.09 180.579 149.262 181.719C150.466 182.858 151.068 184.29 151.068 186.016C151.068 187.676 150.596 189.238 149.652 190.703C148.708 192.135 147.423 193.551 145.795 194.951C144.2 196.318 142.344 197.686 140.229 199.053C138.113 200.387 135.883 201.771 133.539 203.203C133.767 204.896 134.158 206.442 134.711 207.842C135.264 209.209 135.964 210.397 136.811 211.406C137.657 212.383 138.633 213.148 139.74 213.701C140.847 214.222 142.084 214.482 143.451 214.482ZM144.965 187.48C144.965 186.178 144.607 185.153 143.891 184.404C143.207 183.656 142.361 183.281 141.352 183.281C140.505 183.281 139.61 183.59 138.666 184.209C137.722 184.795 136.859 185.755 136.078 187.09C135.297 188.392 134.646 190.068 134.125 192.119C133.604 194.17 133.344 196.66 133.344 199.59V200.713C134.451 200.127 135.671 199.362 137.006 198.418C138.373 197.441 139.643 196.367 140.814 195.195C141.986 194.023 142.963 192.786 143.744 191.484C144.558 190.15 144.965 188.815 144.965 187.48Z" fill="#EB5757"/>
  <path d="M216.107 153.008C216.107 155.905 215.538 158.639 214.398 161.211C213.259 163.75 211.811 166.094 210.053 168.242C208.327 170.391 206.423 172.344 204.34 174.102C202.289 175.827 200.336 177.324 198.48 178.594C201.085 178.822 203.673 179.456 206.244 180.498C208.848 181.507 211.176 182.923 213.227 184.746C215.31 186.536 216.986 188.717 218.256 191.289C219.558 193.828 220.209 196.725 220.209 199.98C220.209 202.65 219.818 205.059 219.037 207.207C218.288 209.323 217.279 211.227 216.01 212.92C214.74 214.58 213.292 216.012 211.664 217.217C210.069 218.421 208.441 219.414 206.781 220.195C205.121 220.977 203.477 221.546 201.85 221.904C200.255 222.295 198.839 222.49 197.602 222.49C194.477 222.49 191.872 222.116 189.789 221.367C187.738 220.618 186.094 219.707 184.857 218.633C183.653 217.526 182.807 216.37 182.318 215.166C181.83 213.962 181.586 212.904 181.586 211.992C181.586 210.592 181.879 209.258 182.465 207.988C183.083 206.686 183.897 205.514 184.906 204.473C185.915 203.431 187.087 202.52 188.422 201.738C189.757 200.924 191.14 200.306 192.572 199.883L193.598 201.494C191.547 202.601 190.033 204.033 189.057 205.791C188.08 207.516 187.592 209.258 187.592 211.016C187.592 211.992 187.787 213.018 188.178 214.092C188.601 215.133 189.219 216.094 190.033 216.973C190.88 217.852 191.921 218.584 193.158 219.17C194.428 219.723 195.909 220 197.602 220C200.076 220 202.387 219.544 204.535 218.633C206.684 217.689 208.539 216.403 210.102 214.775C211.697 213.115 212.934 211.178 213.812 208.965C214.724 206.751 215.18 204.359 215.18 201.787C215.18 199.15 214.626 196.823 213.52 194.805C212.445 192.786 210.997 191.094 209.174 189.727C207.383 188.327 205.3 187.269 202.924 186.553C200.58 185.837 198.139 185.479 195.6 185.479C194.558 185.479 193.533 185.544 192.523 185.674C191.514 185.771 190.554 185.918 189.643 186.113C188.764 186.276 187.966 186.439 187.25 186.602C186.534 186.764 185.98 186.895 185.59 186.992L185.102 186.504L189.594 179.521C189.952 179.424 190.359 179.31 190.814 179.18C191.205 179.082 191.677 178.984 192.23 178.887C192.784 178.757 193.402 178.659 194.086 178.594C195.648 177.65 197.276 176.462 198.969 175.029C200.694 173.564 202.257 171.888 203.656 170C205.089 168.079 206.26 165.931 207.172 163.555C208.116 161.178 208.588 158.59 208.588 155.791C208.588 151.071 207.465 147.507 205.219 145.098C202.973 142.689 199.766 141.484 195.6 141.484C193.191 141.484 190.766 142.005 188.324 143.047C185.883 144.056 183.523 145.618 181.244 147.734C178.998 149.85 176.882 152.52 174.896 155.742C172.943 158.965 171.234 162.757 169.77 167.119C168.337 171.481 167.198 176.445 166.352 182.012C165.505 187.578 165.082 193.747 165.082 200.518C165.082 203.317 165.196 205.905 165.424 208.281C165.684 210.658 166.059 212.725 166.547 214.482C167.068 216.208 167.702 217.559 168.451 218.535C169.2 219.512 170.079 220 171.088 220C172.097 220 172.895 219.268 173.48 217.803C174.099 216.305 174.555 214.368 174.848 211.992C175.173 209.583 175.368 206.898 175.434 203.936C175.531 200.973 175.58 197.995 175.58 195C175.58 190.443 175.515 186.162 175.385 182.158C175.255 178.122 175.108 174.525 174.945 171.367C174.815 168.21 174.685 165.573 174.555 163.457C174.424 161.341 174.343 159.925 174.311 159.209L179.975 157.5C180.137 157.76 180.365 158.542 180.658 159.844C180.951 161.146 181.244 162.871 181.537 165.02C181.83 167.135 182.074 169.609 182.27 172.441C182.497 175.241 182.611 178.268 182.611 181.523C182.611 187.025 182.449 191.859 182.123 196.025C181.83 200.16 181.407 203.757 180.854 206.816C180.3 209.844 179.649 212.367 178.9 214.385C178.184 216.403 177.387 218.014 176.508 219.219C175.661 220.391 174.766 221.221 173.822 221.709C172.911 222.23 171.999 222.49 171.088 222.49C169.102 222.49 167.312 221.807 165.717 220.439C164.154 219.105 162.82 217.331 161.713 215.117C160.606 212.871 159.76 210.316 159.174 207.451C158.588 204.554 158.295 201.576 158.295 198.516C158.295 194.121 158.702 189.58 159.516 184.893C160.329 180.205 161.534 175.632 163.129 171.172C164.724 166.68 166.693 162.432 169.037 158.428C171.381 154.391 174.083 150.876 177.143 147.881C180.202 144.854 183.604 142.461 187.348 140.703C191.124 138.913 195.209 138.018 199.604 138.018C202.11 138.018 204.372 138.359 206.391 139.043C208.441 139.694 210.183 140.671 211.615 141.973C213.048 143.242 214.154 144.805 214.936 146.66C215.717 148.516 216.107 150.632 216.107 153.008Z" fill="#2F80ED"/>
  <path d="M256.879 207.891C256.879 209.746 257.042 211.309 257.367 212.578C257.693 213.848 258.262 214.482 259.076 214.482C259.564 214.482 260.085 214.255 260.639 213.799C261.225 213.311 261.892 212.529 262.641 211.455C263.389 210.381 264.236 208.997 265.18 207.305C266.156 205.579 267.263 203.48 268.5 201.006L269.965 197.979L271.967 199.492L270.502 202.52C269.135 205.254 267.849 207.712 266.645 209.893C265.473 212.041 264.35 213.864 263.275 215.361C262.201 216.859 261.143 218.014 260.102 218.828C259.092 219.609 258.083 220 257.074 220C256 220 255.089 219.707 254.34 219.121C253.624 218.535 253.021 217.738 252.533 216.729C252.045 215.687 251.671 214.499 251.41 213.164C251.15 211.797 250.971 210.348 250.873 208.818C250.092 210.381 249.229 211.846 248.285 213.213C247.341 214.548 246.348 215.719 245.307 216.729C244.298 217.738 243.24 218.535 242.133 219.121C241.026 219.707 239.919 220 238.812 220C237.185 220 235.606 219.658 234.076 218.975C232.546 218.291 231.179 217.249 229.975 215.85C228.803 214.45 227.859 212.692 227.143 210.576C226.426 208.428 226.068 205.905 226.068 203.008C226.068 199.622 226.508 196.53 227.387 193.73C228.266 190.898 229.454 188.473 230.951 186.455C232.449 184.404 234.174 182.826 236.127 181.719C238.08 180.579 240.131 180.01 242.279 180.01C243.581 180.01 244.786 180.303 245.893 180.889C246.999 181.475 247.96 182.191 248.773 183.037C249.62 183.851 250.32 184.73 250.873 185.674C251.426 186.585 251.801 187.367 251.996 188.018L252.582 183.281C252.647 182.663 252.94 182.142 253.461 181.719C254.014 181.296 254.617 180.97 255.268 180.742C255.919 180.482 256.553 180.303 257.172 180.205C257.79 180.075 258.23 180.01 258.49 180.01C258.881 180.01 259.141 180.075 259.271 180.205C259.402 180.335 259.467 180.596 259.467 180.986C259.467 181.475 259.32 182.467 259.027 183.965C258.767 185.43 258.474 187.318 258.148 189.629C257.855 191.908 257.562 194.593 257.27 197.686C257.009 200.778 256.879 204.18 256.879 207.891ZM251.508 195C251.508 193.503 251.28 192.038 250.824 190.605C250.368 189.141 249.75 187.855 248.969 186.748C248.188 185.609 247.276 184.697 246.234 184.014C245.225 183.33 244.151 182.988 243.012 182.988C241.612 182.988 240.294 183.395 239.057 184.209C237.852 184.99 236.794 186.113 235.883 187.578C235.004 189.01 234.304 190.752 233.783 192.803C233.262 194.821 233.002 197.051 233.002 199.492C233.002 204.375 233.767 208.102 235.297 210.674C236.827 213.213 238.861 214.482 241.4 214.482C242.507 214.482 243.646 214.043 244.818 213.164C246.023 212.253 247.113 210.967 248.09 209.307C249.099 207.614 249.913 205.563 250.531 203.154C251.182 200.745 251.508 198.027 251.508 195Z" fill="#F2994A"/>
  <path d="M273.041 181.377C273.171 181.051 273.48 180.791 273.969 180.596C274.457 180.4 274.978 180.27 275.531 180.205C276.085 180.107 276.605 180.059 277.094 180.059C277.582 180.026 277.908 180.01 278.07 180.01C278.559 180.01 278.868 180.14 278.998 180.4C279.161 180.628 279.242 181.003 279.242 181.523C279.242 181.784 279.161 182.37 278.998 183.281C278.835 184.16 278.624 185.267 278.363 186.602C278.135 187.936 277.875 189.45 277.582 191.143C277.322 192.835 277.061 194.577 276.801 196.367C276.573 198.158 276.378 199.98 276.215 201.836C276.052 203.659 275.971 205.384 275.971 207.012C275.971 209.844 276.443 211.976 277.387 213.408C278.331 214.808 279.421 215.508 280.658 215.508C282.807 215.508 284.711 213.929 286.371 210.771C288.031 207.614 289.757 202.992 291.547 196.904V182.695C291.547 182.142 291.791 181.702 292.279 181.377C292.8 181.019 293.386 180.742 294.037 180.547C294.688 180.352 295.323 180.221 295.941 180.156C296.56 180.059 296.999 180.01 297.26 180.01C298.269 180.01 298.773 180.514 298.773 181.523C298.773 181.882 298.741 182.484 298.676 183.33C298.643 184.144 298.594 185.12 298.529 186.26C298.464 187.367 298.399 188.604 298.334 189.971C298.301 191.305 298.285 192.656 298.285 194.023V213.896C298.871 213.148 299.604 212.155 300.482 210.918C301.394 209.681 302.322 208.363 303.266 206.963C304.242 205.563 305.17 204.163 306.049 202.764C306.96 201.364 307.693 200.111 308.246 199.004L308.783 197.979L310.785 199.492L310.248 200.518C309.564 201.885 308.751 203.301 307.807 204.766C306.863 206.23 305.854 207.712 304.779 209.209C303.738 210.674 302.647 212.139 301.508 213.604C300.401 215.036 299.327 216.403 298.285 217.705V228.496C298.285 231.491 298.008 234.03 297.455 236.113C296.934 238.229 296.202 239.938 295.258 241.24C294.314 242.575 293.207 243.535 291.938 244.121C290.668 244.707 289.285 245 287.787 245C286.843 245 285.964 244.854 285.15 244.561C284.369 244.268 283.686 243.828 283.1 243.242C282.514 242.689 282.058 242.005 281.732 241.191C281.407 240.41 281.244 239.515 281.244 238.506C281.244 237.041 281.505 235.576 282.025 234.111C282.579 232.646 283.327 231.133 284.271 229.57C285.248 228.008 286.371 226.396 287.641 224.736C288.91 223.109 290.277 221.4 291.742 219.609V204.814C290.928 207.028 290.049 209.079 289.105 210.967C288.161 212.822 287.136 214.417 286.029 215.752C284.923 217.087 283.734 218.128 282.465 218.877C281.195 219.626 279.828 220 278.363 220C277.322 220 276.247 219.837 275.141 219.512C274.066 219.154 273.057 218.519 272.113 217.607C271.202 216.696 270.453 215.475 269.867 213.945C269.281 212.383 268.988 210.397 268.988 207.988C268.988 205.254 269.151 202.471 269.477 199.639C269.802 196.807 270.176 194.17 270.6 191.729C271.055 189.287 271.511 187.155 271.967 185.332C272.423 183.477 272.781 182.158 273.041 181.377ZM287.25 242.021C287.771 242.021 288.292 241.908 288.812 241.68C289.366 241.484 289.854 241.012 290.277 240.264C290.701 239.515 291.042 238.408 291.303 236.943C291.596 235.479 291.742 233.493 291.742 230.986V223.613C290.635 224.98 289.61 226.299 288.666 227.568C287.755 228.87 286.957 230.124 286.273 231.328C285.59 232.565 285.053 233.753 284.662 234.893C284.271 236.032 284.076 237.139 284.076 238.213C284.076 239.222 284.353 240.101 284.906 240.85C285.46 241.631 286.241 242.021 287.25 242.021Z" fill="#27AE60"/>
  <circle cx="181" cy="181" r="177" stroke="#2F80ED" stroke-width="8"/>
</svg>
